<svg xmlns="http://www.w3.org/2000/svg" viewBox="0 0 36 36">

  <path fill="#dd2e44"
    d="M 31.1 17.4 c 0 7.6 -6.1 13.7 -13.7 13.7 C 9.8 31.1 3.7 25 3.7 17.4 C 3.7 9.8 9.8 3.7 17.4 3.7 S 31.1 9.8 31.1 17.4" />
  <path fill="#f4900c"
    d="M 20.7 30.7 C 19.3 30.8 17.8 30.6 16.4 30.2 C 13.2 29.3 10.6 27.1 9.1 24.2 C 7.9 21.9 7.6 19.3 8.3 16.8 C 9.1 14.4 10.8 12.3 13.1 11.1 C 14.8 10.2 16.9 10 18.8 10.5 C 20.7 11.1 22.3 12.4 23.3 14.2 C 24 15.6 24.2 17.2 23.7 18.7 C 23.3 20.1 22.2 21.4 20.9 22.1 C 19.8 22.7 18.6 22.8 17.4 22.5 C 16.3 22.1 15.4 21.3 14.8 20.3 C 13.9 18.6 14.5 16.6 16.2 15.7 C 16.8 15.4 17.5 15.3 18.1 15.5 q 0.3 0.1 0.6 0.3 C 18.1 15.5 17.2 15.5 16.6 15.8 C 15.2 16.6 14.7 18.2 15.4 19.6 C 15.8 20.3 16.5 20.9 17.3 21.1 c 0.8 0.3 1.7 0.2 2.5 -0.2 C 21.6 19.9 22.3 17.6 21.3 15.8 C 20.8 14.8 19.8 14 18.7 13.6 C 17.5 13.3 16.3 13.4 15.3 14 C 12.7 15.4 11.7 18.6 13.1 21.2 C 13.9 22.7 15.2 23.8 16.9 24.3 c 1.6 0.5 3.4 0.3 4.9 -0.5 C 23.6 22.9 25 21.2 25.6 19.2 C 26.2 17.3 26 15.1 25 13.3 C 23.8 11.1 21.8 9.4 19.4 8.7 C 17 7.9 14.4 8.2 12.1 9.4 C 9.4 10.8 7.4 13.3 6.5 16.3 C 5.6 19.2 5.9 22.4 7.3 25.1 C 8.2 26.8 9.5 28.3 11 29.5 C 12.9 30.6 15.2 31.1 17.4 31.1 C 18.5 31.1 19.7 31 20.7 30.7 m -1.3 -12.5 C 19.6 18.1 19.7 18 19.8 17.8 C 19.7 18.4 19.4 18.9 18.8 19.2 c -0.3 0.2 -0.6 0.2 -1 0.1 C 17.6 19.2 17.3 19 17.1 18.7 C 16.9 18.3 17.1 17.8 17.5 17.6 C 17.6 17.5 17.7 17.5 17.8 17.5 C 17.9 17.6 18 17.7 18.1 17.8 C 18.2 18 18.4 18.2 18.7 18.2 C 18.9 18.3 19.2 18.3 19.4 18.2" />
  <path fill="#ffcc4d"
    d="M 27.8 11.8 C 26.3 8.4 21.7 4.5 16.1 3.9 c -0.2 0 -0.4 0 -0.6 0 C 11.9 4.4 8.7 6.2 6.6 9 c 3.4 -2.8 6.8 -3.2 9.3 -2.9 c 4.8 0.5 8.7 3.8 10 6.7 c 2 4.4 0 9.7 -4.4 11.7 C 19.8 25.2 17.9 25.3 16.2 24.6 C 14.5 24 13.1 22.7 12.3 21 C 11.2 18.4 12.3 15.2 15 14 C 17 13.1 19.4 14 20.3 16 C 20.8 17.3 20.5 18.7 19.4 19.6 c 0.3 -0.3 0.5 -0.6 0.6 -1 C 20.3 17.9 20.3 17.2 20 16.5 C 19.6 15.7 19 15.1 18.2 14.8 C 17.4 14.5 16.5 14.6 15.8 14.9 C 14.9 15.3 14.2 16 13.8 17 C 13.5 17.9 13.5 18.9 13.9 19.8 C 14.4 20.9 15.3 21.7 16.3 22.1 C 17.4 22.5 18.6 22.5 19.7 22 C 22.3 20.8 23.4 17.7 22.3 15.1 c -1.4 -3.1 -5.1 -4.5 -8.2 -3.1 c -3.8 1.7 -5.4 6.1 -3.7 9.9 C 11.3 24.1 13.1 25.8 15.4 26.7 C 16.4 27.1 17.5 27.3 18.6 27.3 c 1.3 0 2.5 -0.3 3.7 -0.8 c 5.6 -2.5 8 -9.1 5.5 -14.6 m -9.9 6 C 17.9 18 17.8 18.1 17.7 18.2 C 17.3 18.3 17 18.7 17 19.2 C 17 19.6 17.3 20 17.7 20.2 C 17.5 20.2 17.3 20.1 17.1 20 C 16.6 19.8 16.2 19.4 15.9 18.9 C 15.7 18.5 15.7 18.1 15.9 17.7 c 0.1 -0.4 0.4 -0.7 0.8 -0.8 C 16.9 16.8 17.2 16.8 17.4 16.9 C 17.7 17 17.9 17.2 18 17.4 C 18 17.5 18 17.7 18 17.8" />
</svg>
